<?xml version="1.0" encoding="UTF-8"?>
<svg width="974px" height="323px" viewBox="0 0 974 323" version="1.1" xmlns="http://www.w3.org/2000/svg" xmlns:xlink="http://www.w3.org/1999/xlink">
    <!-- Generator: Sketch 52.3 (67297) - http://www.bohemiancoding.com/sketch -->
    <title>Group</title>
    <desc>Created with Sketch.</desc>
    <g id="Page-1" stroke="none" stroke-width="1" fill="none" fill-rule="evenodd">
        <g id="White_wordmark_RGB" transform="translate(-13.000000, -1.000000)" fill="#3B3F45">
            <g id="Group" transform="translate(13.000000, 1.000000)">
                <path d="M401.341,202.076 C401.341,217.756 397.11,229.767 388.642,238.107 C380.174,246.453 368.347,250.62 353.172,250.62 C345.271,250.62 338.308,249.365 332.285,246.858 C326.265,244.35 321.245,240.902 317.233,236.51 C313.216,232.12 310.204,226.977 308.201,221.079 C306.506,216.105 305.527,210.774 305.262,205.085 C305.18,203.318 306.635,201.887 308.404,201.887 L332.457,201.887 C334.251,201.887 335.655,203.363 335.8,205.151 C336.21,210.231 337.61,214.538 340,218.068 C342.884,222.335 347.274,224.466 353.172,224.466 C359.068,224.466 363.521,222.49 366.53,218.54 C369.542,214.586 371.047,209.102 371.047,202.076 L371.047,118.92 C371.047,117.145 372.486,115.706 374.262,115.706 L398.127,115.706 C399.902,115.706 401.341,117.145 401.341,118.92 L401.341,202.076" id="Fill-1"></path>
                <path d="M459.484,225.219 C462.744,225.219 465.722,224.624 468.422,223.432 C471.117,222.24 473.409,220.579 475.29,218.445 C477.171,216.314 478.646,213.867 479.713,211.105 C480.774,208.349 481.31,205.337 481.31,202.076 C481.31,198.942 480.774,195.958 479.713,193.136 C478.646,190.315 477.171,187.868 475.29,185.798 C473.409,183.729 471.117,182.067 468.422,180.811 C465.722,179.561 462.744,178.93 459.484,178.93 C456.22,178.93 453.272,179.561 450.639,180.811 C448.005,182.067 445.749,183.729 443.865,185.798 C441.984,187.868 440.542,190.315 439.537,193.136 C438.531,195.958 438.031,198.942 438.031,202.076 C438.031,205.337 438.531,208.349 439.537,211.105 C440.542,213.867 441.984,216.314 443.865,218.445 C445.749,220.579 448.005,222.24 450.639,223.432 C453.272,224.624 456.22,225.219 459.484,225.219 Z M459.484,249.867 C451.705,249.867 444.713,248.581 438.503,246.011 C432.294,243.441 427.026,239.99 422.698,235.662 C418.369,231.334 415.044,226.286 412.724,220.515 C410.401,214.747 409.243,208.599 409.243,202.076 C409.243,195.552 410.401,189.407 412.724,183.634 C415.044,177.866 418.369,172.815 422.698,168.487 C427.026,164.158 432.294,160.71 438.503,158.138 C444.713,155.568 451.705,154.282 459.484,154.282 C467.386,154.282 474.443,155.568 480.652,158.138 C486.861,160.71 492.131,164.158 496.457,168.487 C500.786,172.815 504.106,177.866 506.431,183.634 C508.751,189.407 509.912,195.552 509.912,202.076 C509.912,208.599 508.751,214.747 506.431,220.515 C504.106,226.286 500.786,231.334 496.457,235.662 C492.131,239.99 486.861,243.441 480.652,246.011 C474.443,248.581 467.386,249.867 459.484,249.867 Z" id="Fill-2"></path>
                <path d="M569.37,225.219 C572.504,225.219 575.393,224.594 578.027,223.338 C580.661,222.085 582.919,220.421 584.8,218.351 C586.684,216.281 588.156,213.836 589.223,211.013 C590.287,208.191 590.823,205.212 590.823,202.076 C590.823,198.942 590.287,195.991 589.223,193.23 C588.156,190.474 586.684,188.026 584.8,185.893 C582.919,183.761 580.661,182.067 578.027,180.811 C575.393,179.561 572.504,178.93 569.37,178.93 C566.108,178.93 563.13,179.561 560.432,180.811 C557.734,182.067 555.448,183.761 553.567,185.893 C551.683,188.026 550.208,190.474 549.144,193.23 C548.075,195.991 547.544,198.942 547.544,202.076 C547.544,205.212 548.075,208.191 549.144,211.013 C550.208,213.836 551.683,216.281 553.567,218.351 C555.448,220.421 557.734,222.085 560.432,223.338 C563.13,224.594 566.108,225.219 569.37,225.219 Z M547.544,244.208 C547.544,245.983 546.105,247.422 544.329,247.422 L521.97,247.422 C520.195,247.422 518.755,245.983 518.755,244.208 L518.755,118.92 C518.755,117.145 520.195,115.706 521.97,115.706 L544.329,115.706 C546.105,115.706 547.544,117.145 547.544,118.92 L547.544,167.299 C547.544,167.988 548.443,168.227 548.841,167.664 C549.752,166.375 550.825,165.112 552.061,163.878 C553.942,161.994 556.134,160.366 558.646,158.985 C561.154,157.607 563.821,156.51 566.644,155.693 C569.467,154.876 572.381,154.468 575.393,154.468 C581.914,154.468 587.906,155.693 593.363,158.138 C598.819,160.585 603.492,163.908 607.382,168.112 C611.266,172.315 614.277,177.33 616.411,183.164 C618.545,188.996 619.611,195.3 619.611,202.076 C619.611,208.849 618.545,215.153 616.411,220.985 C614.277,226.819 611.266,231.836 607.382,236.037 C603.492,240.243 598.819,243.566 593.363,246.011 C587.906,248.458 581.914,249.681 575.393,249.681 C572.381,249.681 569.467,249.273 566.644,248.458 C563.821,247.639 561.154,246.575 558.646,245.258 C556.134,243.941 553.942,242.374 552.061,240.555 C550.766,239.305 549.65,237.981 548.712,236.582 C548.352,236.044 547.544,236.389 547.544,237.037 L547.544,244.208 Z" id="Fill-3"></path>
                <path d="M673.99,290.888 C666.586,290.888 660.16,290.135 654.704,288.629 C649.247,287.126 644.51,284.74 640.498,281.481 C636.859,278.469 633.878,274.736 631.561,270.285 C629.674,266.666 628.555,262.488 628.202,257.752 C628.067,255.942 629.479,254.385 631.294,254.385 L653.653,254.385 C655.461,254.385 656.898,255.812 657.252,257.584 C657.973,261.183 659.632,264.035 662.23,266.145 C665.553,268.84 669.598,270.19 674.365,270.19 C679.885,270.19 684.211,268.84 687.351,266.145 C690.485,263.445 692.054,258.585 692.054,251.562 L692.054,235.345 C692.054,234.677 691.147,234.581 690.788,235.145 C688.348,238.974 685.04,242 680.858,244.225 C675.902,246.858 669.976,248.175 663.077,248.175 C657.057,248.175 651.814,247.172 647.364,245.164 C642.913,243.16 639.431,240.524 636.92,237.262 C634.036,233.75 632.153,229.828 631.277,225.502 C630.397,221.174 629.958,215.75 629.958,209.224 L629.958,159.941 C629.958,158.166 631.397,156.727 633.172,156.727 L655.348,156.727 C657.123,156.727 658.562,158.166 658.562,159.941 L658.562,203.204 C658.562,209.727 659.721,215.028 662.043,219.104 C664.361,223.182 668.534,225.219 674.554,225.219 C680.577,225.219 684.998,223.149 687.82,219.009 C690.643,214.87 692.054,209.291 692.054,202.262 L692.054,159.941 C692.054,158.166 693.493,156.727 695.269,156.727 L717.631,156.727 C719.406,156.727 720.845,158.166 720.845,159.941 L720.845,249.681 C720.845,256.83 719.714,263.039 717.456,268.309 C715.2,273.577 712.122,277.842 708.237,281.103 C704.22,284.49 699.486,286.966 694.03,288.538 C688.573,290.104 681.894,290.888 673.99,290.888" id="Fill-4"></path>
                <path d="M735.52,118.92 C735.52,117.145 736.959,115.706 738.734,115.706 L761.094,115.706 C762.869,115.706 764.308,117.145 764.308,118.92 L764.308,244.208 C764.308,245.983 762.869,247.422 761.094,247.422 L738.734,247.422 C736.959,247.422 735.52,245.983 735.52,244.208 L735.52,118.92" id="Fill-5"></path>
                <path d="M823.388,225.219 C826.647,225.219 829.628,224.624 832.328,223.432 C835.023,222.24 837.313,220.579 839.193,218.445 C841.077,216.314 842.55,213.867 843.616,211.105 C844.68,208.349 845.217,205.337 845.217,202.076 C845.217,198.942 844.68,195.958 843.616,193.136 C842.55,190.315 841.077,187.868 839.193,185.798 C837.313,183.729 835.023,182.067 832.328,180.811 C829.628,179.561 826.647,178.93 823.388,178.93 C820.124,178.93 817.178,179.561 814.545,180.811 C811.911,182.067 809.652,183.729 807.771,185.798 C805.888,187.868 804.446,190.315 803.443,193.136 C802.437,195.958 801.937,198.942 801.937,202.076 C801.937,205.337 802.437,208.349 803.443,211.105 C804.446,213.867 805.888,216.314 807.771,218.445 C809.652,220.579 811.911,222.24 814.545,223.432 C817.178,224.624 820.124,225.219 823.388,225.219 Z M823.388,249.867 C815.609,249.867 808.619,248.581 802.407,246.011 C796.2,243.441 790.93,239.99 786.604,235.662 C782.275,231.334 778.947,226.286 776.63,220.515 C774.308,214.747 773.149,208.599 773.149,202.076 C773.149,195.552 774.308,189.407 776.63,183.634 C778.947,177.866 782.275,172.815 786.604,168.487 C790.93,164.158 796.2,160.71 802.407,158.138 C808.619,155.568 815.609,154.282 823.388,154.282 C831.292,154.282 838.346,155.568 844.558,158.138 C850.765,160.71 856.035,164.158 860.361,168.487 C864.689,172.815 868.012,177.866 870.335,183.634 C872.655,189.407 873.816,195.552 873.816,202.076 C873.816,208.599 872.655,214.747 870.335,220.515 C868.012,226.286 864.689,231.334 860.361,235.662 C856.035,239.99 850.765,243.441 844.558,246.011 C838.346,248.581 831.292,249.867 823.388,249.867 Z" id="Fill-6"></path>
                <path d="M882.662,159.941 C882.662,158.166 884.101,156.727 885.876,156.727 L908.235,156.727 C910.011,156.727 911.45,158.166 911.45,159.941 L911.45,167.488 C911.45,168.156 912.359,168.249 912.719,167.686 C915.174,163.847 918.547,160.792 922.833,158.516 C927.914,155.818 934.029,154.468 941.177,154.468 C947.073,154.468 952.154,155.379 956.419,157.196 C960.683,159.019 964.07,161.558 966.582,164.817 C969.465,168.331 971.379,172.376 972.319,176.955 C973.263,181.536 973.733,187.087 973.733,193.608 L973.733,244.208 C973.733,245.983 972.293,247.422 970.518,247.422 L948.159,247.422 C946.384,247.422 944.944,245.983 944.944,244.208 L944.944,200.945 C944.944,194.425 943.781,189.124 941.463,185.045 C939.138,180.969 934.97,178.93 928.948,178.93 C923.052,178.93 918.662,181 915.778,185.14 C912.889,189.279 911.45,194.864 911.45,201.887 L911.45,244.208 C911.45,245.983 910.011,247.422 908.235,247.422 L885.876,247.422 C884.101,247.422 882.662,245.983 882.662,244.208 L882.662,159.941" id="Fill-7"></path>
                <g id="Group-11">
                    <path d="M212.973,110.783 L212.984,110.738 L212.996,110.693 C214.78,103.731 215.89,94.396 216.295,82.947 L217.025,62.332 C199.268,26.071 162.272,1.599 119.665,0.808 C119.031,0.787 118.396,0.776 117.762,0.776 C117.182,0.776 116.612,0.787 116.031,0.797 C79.844,1.711 50.796,31.34 50.796,67.742 C50.796,68.323 50.806,68.893 50.817,69.473 C50.828,70.043 50.849,70.602 50.881,71.161 C52.719,119.742 93.805,154.969 131.813,190.24 C133.503,189.852 135.184,189.425 136.852,188.958 C174.606,178.358 203.774,148.403 212.973,110.783" id="Fill-8"></path>
                    <path d="M108.817,201.479 C107.905,201.493 106.992,201.502 106.082,201.541 C105.456,201.568 104.501,201.597 103.251,201.597 C97.457,201.597 85.308,200.987 70.105,196.803 C55.521,192.79 36.062,183.432 24.729,183.432 C-15.651,183.432 6.137,241.866 6.137,241.866 C21.407,288.75 65.486,322.224 117.493,322.224 C147.671,322.224 175.322,310.958 196.221,292.337 C213.433,276.985 226.065,256.645 231.72,233.52 C242.665,190.871 226.119,89.362 226.119,89.362 C225.711,87.298 225.248,85.256 224.732,83.245 C224.335,94.48 223.249,104.693 221.174,112.788 C211.186,153.63 179.493,185.754 139.135,197.085 C129.463,199.795 119.294,201.316 108.817,201.479" id="Fill-10"></path>
                </g>
            </g>
        </g>
    </g>
</svg>